<?xml version="1.0" standalone="no"?>
<!DOCTYPE svg PUBLIC "-//W3C//DTD SVG 20010904//EN"
 "http://www.w3.org/TR/2001/REC-SVG-20010904/DTD/svg10.dtd">
<svg version="1.0" xmlns="http://www.w3.org/2000/svg"
 width="2000.000000pt" height="1257.000000pt" viewBox="0 0 2000.000000 1257.000000"
 preserveAspectRatio="xMidYMid meet">

<g transform="translate(0.000000,1257.000000) scale(0.100000,-0.100000)"
fill="#000000" stroke="none">
<path d="M2505 12531 c-49 -16 -169 -54 -265 -85 -181 -60 -873 -282 -1205
-387 -989 -315 -1025 -326 -1025 -336 0 -5 42 -60 459 -593 249 -319 264 -338
636 -815 458 -587 803 -1029 939 -1205 138 -179 158 -200 187 -200 17 0 332
148 664 312 96 47 153 59 162 33 3 -9 -160 -202 -477 -567 -71 -81 -83 -102
-74 -130 7 -23 18 -36 679 -793 264 -302 676 -775 914 -1050 668 -770 626
-725 664 -725 24 0 130 59 427 236 217 130 423 254 457 276 41 27 70 38 89 36
25 -3 14 -20 -227 -333 -140 -181 -296 -383 -347 -448 -107 -137 -126 -170
-118 -203 4 -13 174 -204 379 -426 434 -470 871 -946 1112 -1211 94 -103 180
-190 193 -193 43 -11 73 7 188 117 228 216 985 901 991 896 3 -3 0 -46 -7 -94
-14 -110 -77 -529 -90 -603 -6 -30 -30 -185 -55 -345 -25 -159 -52 -330 -60
-380 -8 -49 -26 -162 -40 -250 -14 -88 -34 -216 -45 -285 -48 -297 -48 -296
-34 -336 10 -30 270 -295 1201 -1227 653 -654 1198 -1193 1211 -1198 15 -6 31
-5 45 2 28 14 2349 2330 2388 2383 38 51 37 65 -10 359 -22 133 -51 316 -65
407 -14 91 -30 190 -36 220 -5 30 -14 87 -20 125 -5 39 -30 201 -55 360 -25
160 -52 335 -60 390 -8 55 -24 150 -35 211 -13 67 -20 141 -18 184 l3 73 335
-304 c184 -167 430 -391 545 -497 116 -107 220 -199 232 -205 12 -5 33 -7 47
-3 16 4 118 108 283 289 326 357 872 951 1158 1260 121 131 228 252 237 269
12 22 14 37 7 55 -5 13 -116 162 -247 331 -131 169 -286 370 -345 446 -133
173 -141 211 -33 144 28 -17 143 -86 256 -153 113 -67 299 -179 414 -248 207
-126 242 -141 277 -114 8 7 242 273 519 592 277 319 768 882 1091 1250 322
369 592 681 598 694 20 36 6 64 -75 158 -363 420 -484 565 -478 574 14 23 81
-4 440 -181 397 -195 400 -196 452 -147 14 12 110 132 215 267 726 931 1418
1818 1681 2150 209 264 256 328 256 346 0 25 -43 43 -271 115 -237 75 -528
167 -954 304 -143 46 -379 122 -525 169 -146 47 -383 123 -528 170 -164 54
-280 86 -307 86 -84 0 -82 1 -570 -386 -431 -342 -1335 -1057 -2020 -1599
-570 -451 -1724 -1366 -2365 -1875 -217 -173 -410 -324 -429 -337 -45 -31 -81
-29 -113 5 -14 15 -114 167 -221 337 -375 597 -893 1420 -926 1470 -18 28 -45
59 -59 70 -27 20 -45 20 -1106 23 -1063 2 -1080 2 -1121 -18 -48 -23 -678
-660 -683 -691 -3 -18 15 -19 788 -21 l792 -3 -64 -90 c-35 -49 -143 -196
-239 -325 -96 -129 -298 -400 -448 -603 -282 -380 -294 -392 -344 -370 -23 11
-227 171 -1197 938 -305 241 -663 524 -795 629 -132 104 -357 282 -500 396
-143 113 -489 388 -770 610 -280 222 -909 720 -1397 1107 -488 387 -907 712
-930 723 -56 25 -75 24 -183 -9z"/>
</g>
</svg>
