<?xml version="1.0" standalone="no"?>
<!DOCTYPE svg PUBLIC "-//W3C//DTD SVG 20010904//EN"
 "http://www.w3.org/TR/2001/REC-SVG-20010904/DTD/svg10.dtd">
<svg version="1.0" xmlns="http://www.w3.org/2000/svg"
 width="600.000000pt" height="251.000000pt" viewBox="0 0 600.000000 251.000000"
 preserveAspectRatio="xMidYMid meet">
<g transform="translate(0.000000,251.000000) scale(0.100000,-0.100000)"
fill="#ff0000" stroke="none">
<path d="M763 2247 c-139 -144 -367 -379 -507 -522 -139 -143 -252 -261 -251
-263 1 -2 78 9 170 23 l168 26 186 -91 c102 -51 307 -151 456 -223 148 -73
364 -179 480 -237 l210 -105 26 -85 c14 -47 30 -84 35 -83 5 0 61 15 125 33
l115 31 400 -198 399 -198 103 -170 c56 -94 106 -171 110 -172 4 -1 54 76 112
171 l105 174 400 196 c453 223 381 204 568 152 l87 -24 27 89 c23 77 30 90 57
103 17 8 148 72 291 141 143 70 379 185 525 255 146 70 317 153 379 185 l114
57 167 -26 c92 -14 171 -26 175 -26 4 0 -161 171 -366 381 -206 209 -437 445
-514 525 l-140 144 -789 -265 c-434 -146 -794 -265 -801 -265 -6 0 -40 72 -75
160 -35 88 -65 160 -66 160 -2 0 -28 -47 -59 -104 l-55 -103 -46 -7 c-59 -8
-148 -7 -198 2 -36 7 -41 12 -92 106 -30 55 -56 102 -58 104 -2 2 -32 -69 -67
-157 -34 -89 -67 -161 -73 -161 -7 0 -365 119 -796 265 -431 146 -784 265
-784 264 -1 0 -115 -118 -253 -262z"/>
</g>
</svg>
